<svg id="visual" viewBox="0 0 900 600" width="900" height="600" xmlns="http://www.w3.org/2000/svg" xmlns:xlink="http://www.w3.org/1999/xlink" version="1.1"><rect x="0" y="0" width="900" height="600" fill="#66bddd"></rect><defs><linearGradient id="grad1_0" x1="33.3%" y1="0%" x2="100%" y2="100%"><stop offset="20%" stop-color="#2596be" stop-opacity="1"></stop><stop offset="80%" stop-color="#2596be" stop-opacity="1"></stop></linearGradient></defs><defs><linearGradient id="grad1_1" x1="33.3%" y1="0%" x2="100%" y2="100%"><stop offset="20%" stop-color="#2596be" stop-opacity="1"></stop><stop offset="80%" stop-color="#3fa3c8" stop-opacity="1"></stop></linearGradient></defs><defs><linearGradient id="grad1_2" x1="33.3%" y1="0%" x2="100%" y2="100%"><stop offset="20%" stop-color="#53b0d3" stop-opacity="1"></stop><stop offset="80%" stop-color="#3fa3c8" stop-opacity="1"></stop></linearGradient></defs><defs><linearGradient id="grad1_3" x1="33.3%" y1="0%" x2="100%" y2="100%"><stop offset="20%" stop-color="#53b0d3" stop-opacity="1"></stop><stop offset="80%" stop-color="#66bddd" stop-opacity="1"></stop></linearGradient></defs><defs><linearGradient id="grad2_0" x1="0%" y1="0%" x2="66.7%" y2="100%"><stop offset="20%" stop-color="#2596be" stop-opacity="1"></stop><stop offset="80%" stop-color="#2596be" stop-opacity="1"></stop></linearGradient></defs><defs><linearGradient id="grad2_1" x1="0%" y1="0%" x2="66.7%" y2="100%"><stop offset="20%" stop-color="#3fa3c8" stop-opacity="1"></stop><stop offset="80%" stop-color="#2596be" stop-opacity="1"></stop></linearGradient></defs><defs><linearGradient id="grad2_2" x1="0%" y1="0%" x2="66.7%" y2="100%"><stop offset="20%" stop-color="#3fa3c8" stop-opacity="1"></stop><stop offset="80%" stop-color="#53b0d3" stop-opacity="1"></stop></linearGradient></defs><defs><linearGradient id="grad2_3" x1="0%" y1="0%" x2="66.7%" y2="100%"><stop offset="20%" stop-color="#66bddd" stop-opacity="1"></stop><stop offset="80%" stop-color="#53b0d3" stop-opacity="1"></stop></linearGradient></defs><g transform="translate(900, 0)"><path d="M0 513.8C-44.5 506.4 -89.1 499 -129.2 482C-169.2 465 -204.8 438.3 -239 414C-273.2 389.6 -305.9 367.6 -343.7 343.7C-381.4 319.8 -424.2 294 -445 256.9C-465.7 219.8 -464.5 171.3 -472.3 126.6C-480.1 81.8 -497 40.9 -513.8 0L0 0Z" fill="#5db6d8"></path><path d="M0 385.3C-33.4 379.8 -66.8 374.3 -96.9 361.5C-126.9 348.7 -153.6 328.7 -179.2 310.5C-204.9 292.2 -229.4 275.7 -257.7 257.7C-286.1 239.8 -318.1 220.5 -333.7 192.7C-349.3 164.8 -348.4 128.5 -354.3 94.9C-360.1 61.4 -372.7 30.7 -385.3 0L0 0Z" fill="#49a9cd"></path><path d="M0 256.9C-22.3 253.2 -44.5 249.5 -64.6 241C-84.6 232.5 -102.4 219.2 -119.5 207C-136.6 194.8 -153 183.8 -171.8 171.8C-190.7 159.9 -212.1 147 -222.5 128.4C-232.9 109.9 -232.3 85.6 -236.2 63.3C-240.1 40.9 -248.5 20.5 -256.9 0L0 0Z" fill="#339cc3"></path><path d="M0 128.4C-11.1 126.6 -22.3 124.8 -32.3 120.5C-42.3 116.2 -51.2 109.6 -59.7 103.5C-68.3 97.4 -76.5 91.9 -85.9 85.9C-95.4 79.9 -106 73.5 -111.2 64.2C-116.4 54.9 -116.1 42.8 -118.1 31.6C-120 20.5 -124.2 10.2 -128.4 0L0 0Z" fill="#2596be"></path></g><g transform="translate(0, 600)"><path d="M0 -513.8C45.3 -511.8 90.5 -509.8 133 -496.3C175.4 -482.8 215 -457.9 247.5 -428.7C280 -399.5 305.4 -366.1 335.9 -335.9C366.4 -305.7 402.1 -278.8 421.8 -243.5C441.4 -208.2 445.2 -164.7 457.8 -122.7C470.5 -80.7 492.2 -40.4 513.8 0L0 0Z" fill="#5db6d8"></path><path d="M0 -385.3C34 -383.8 67.9 -382.3 99.7 -372.2C131.6 -362.1 161.3 -343.4 185.6 -321.5C210 -299.6 229 -274.5 251.9 -251.9C274.8 -229.3 301.5 -209.1 316.3 -182.6C331.1 -156.2 333.9 -123.5 343.4 -92C352.9 -60.5 369.1 -30.3 385.3 0L0 0Z" fill="#49a9cd"></path><path d="M0 -256.9C22.6 -255.9 45.3 -254.9 66.5 -248.1C87.7 -241.4 107.5 -228.9 123.7 -214.3C140 -199.7 152.7 -183 167.9 -167.9C183.2 -152.8 201 -139.4 210.9 -121.8C220.7 -104.1 222.6 -82.3 228.9 -61.3C235.3 -40.4 246.1 -20.2 256.9 0L0 0Z" fill="#339cc3"></path><path d="M0 -128.4C11.3 -127.9 22.6 -127.4 33.2 -124.1C43.9 -120.7 53.8 -114.5 61.9 -107.2C70 -99.9 76.3 -91.5 84 -84C91.6 -76.4 100.5 -69.7 105.4 -60.9C110.4 -52.1 111.3 -41.2 114.5 -30.7C117.6 -20.2 123 -10.1 128.4 0L0 0Z" fill="#2596be"></path></g></svg>