<svg id="visual" viewBox="0 0 900 600" width="900" height="600" xmlns="http://www.w3.org/2000/svg" xmlns:xlink="http://www.w3.org/1999/xlink" version="1.1"><path d="M0 198L30 207.5C60 217 120 236 180 220.2C240 204.3 300 153.7 360 147C420 140.3 480 177.7 540 196.5C600 215.3 660 215.7 720 217.7C780 219.7 840 223.3 870 225.2L900 227L900 601L870 601C840 601 780 601 720 601C660 601 600 601 540 601C480 601 420 601 360 601C300 601 240 601 180 601C120 601 60 601 30 601L0 601Z" fill="#2596be"></path><path d="M0 341L30 330.3C60 319.7 120 298.3 180 278.8C240 259.3 300 241.7 360 241.5C420 241.3 480 258.7 540 268.2C600 277.7 660 279.3 720 289C780 298.7 840 316.3 870 325.2L900 334L900 601L870 601C840 601 780 601 720 601C660 601 600 601 540 601C480 601 420 601 360 601C300 601 240 601 180 601C120 601 60 601 30 601L0 601Z" fill="#0fb3d6"></path><path d="M0 338L30 339.7C60 341.3 120 344.7 180 346.2C240 347.7 300 347.3 360 357.8C420 368.3 480 389.7 540 384.7C600 379.7 660 348.3 720 353.8C780 359.3 840 401.7 870 422.8L900 444L900 601L870 601C840 601 780 601 720 601C660 601 600 601 540 601C480 601 420 601 360 601C300 601 240 601 180 601C120 601 60 601 30 601L0 601Z" fill="#00d1eb"></path><path d="M0 438L30 446.5C60 455 120 472 180 474.5C240 477 300 465 360 467.7C420 470.3 480 487.7 540 492.7C600 497.7 660 490.3 720 479.7C780 469 840 455 870 448L900 441L900 601L870 601C840 601 780 601 720 601C660 601 600 601 540 601C480 601 420 601 360 601C300 601 240 601 180 601C120 601 60 601 30 601L0 601Z" fill="#08effa"></path></svg>