<svg id="visual" viewBox="0 0 960 540" width="960" height="540" xmlns="http://www.w3.org/2000/svg" xmlns:xlink="http://www.w3.org/1999/xlink" version="1.1"><rect x="0" y="0" width="960" height="540" fill="#f3f6da"></rect><path d="M0 270L16 279.3C32 288.7 64 307.3 96 317.5C128 327.7 160 329.3 192 333.5C224 337.7 256 344.3 288 343.2C320 342 352 333 384 318.5C416 304 448 284 480 284C512 284 544 304 576 310.7C608 317.3 640 310.7 672 315.2C704 319.7 736 335.3 768 339.3C800 343.3 832 335.7 864 326.7C896 317.7 928 307.3 944 302.2L960 297L960 541L944 541C928 541 896 541 864 541C832 541 800 541 768 541C736 541 704 541 672 541C640 541 608 541 576 541C544 541 512 541 480 541C448 541 416 541 384 541C352 541 320 541 288 541C256 541 224 541 192 541C160 541 128 541 96 541C64 541 32 541 16 541L0 541Z" fill="#f3f6da"></path><path d="M0 313L16 312.3C32 311.7 64 310.3 96 319.5C128 328.7 160 348.3 192 346.5C224 344.7 256 321.3 288 310.3C320 299.3 352 300.7 384 301.8C416 303 448 304 480 315.3C512 326.7 544 348.3 576 350.8C608 353.3 640 336.7 672 323.8C704 311 736 302 768 302.2C800 302.3 832 311.7 864 319.5C896 327.3 928 333.7 944 336.8L960 340L960 541L944 541C928 541 896 541 864 541C832 541 800 541 768 541C736 541 704 541 672 541C640 541 608 541 576 541C544 541 512 541 480 541C448 541 416 541 384 541C352 541 320 541 288 541C256 541 224 541 192 541C160 541 128 541 96 541C64 541 32 541 16 541L0 541Z" fill="#eef2d0"></path><path d="M0 368L16 361C32 354 64 340 96 334.2C128 328.3 160 330.7 192 341C224 351.3 256 369.7 288 367.3C320 365 352 342 384 330.2C416 318.3 448 317.7 480 320.3C512 323 544 329 576 341.8C608 354.7 640 374.3 672 371.2C704 368 736 342 768 340C800 338 832 360 864 366C896 372 928 362 944 357L960 352L960 541L944 541C928 541 896 541 864 541C832 541 800 541 768 541C736 541 704 541 672 541C640 541 608 541 576 541C544 541 512 541 480 541C448 541 416 541 384 541C352 541 320 541 288 541C256 541 224 541 192 541C160 541 128 541 96 541C64 541 32 541 16 541L0 541Z" fill="#e9eec6"></path><path d="M0 340L16 341.2C32 342.3 64 344.7 96 346.8C128 349 160 351 192 360.7C224 370.3 256 387.7 288 397C320 406.3 352 407.7 384 403.7C416 399.7 448 390.3 480 381.8C512 373.3 544 365.7 576 369.3C608 373 640 388 672 386C704 384 736 365 768 365C800 365 832 384 864 389C896 394 928 385 944 380.5L960 376L960 541L944 541C928 541 896 541 864 541C832 541 800 541 768 541C736 541 704 541 672 541C640 541 608 541 576 541C544 541 512 541 480 541C448 541 416 541 384 541C352 541 320 541 288 541C256 541 224 541 192 541C160 541 128 541 96 541C64 541 32 541 16 541L0 541Z" fill="#e4e9bc"></path><path d="M0 418L16 414.5C32 411 64 404 96 400.5C128 397 160 397 192 399C224 401 256 405 288 401C320 397 352 385 384 388.7C416 392.3 448 411.7 480 411.8C512 412 544 393 576 388.8C608 384.7 640 395.3 672 398.2C704 401 736 396 768 395C800 394 832 397 864 396.7C896 396.3 928 392.7 944 390.8L960 389L960 541L944 541C928 541 896 541 864 541C832 541 800 541 768 541C736 541 704 541 672 541C640 541 608 541 576 541C544 541 512 541 480 541C448 541 416 541 384 541C352 541 320 541 288 541C256 541 224 541 192 541C160 541 128 541 96 541C64 541 32 541 16 541L0 541Z" fill="#dfe5b2"></path><path d="M0 422L16 420.7C32 419.3 64 416.7 96 417.8C128 419 160 424 192 422C224 420 256 411 288 413C320 415 352 428 384 435.7C416 443.3 448 445.7 480 443.3C512 441 544 434 576 434.2C608 434.3 640 441.7 672 436.2C704 430.7 736 412.3 768 412C800 411.7 832 429.3 864 437.5C896 445.7 928 444.3 944 443.7L960 443L960 541L944 541C928 541 896 541 864 541C832 541 800 541 768 541C736 541 704 541 672 541C640 541 608 541 576 541C544 541 512 541 480 541C448 541 416 541 384 541C352 541 320 541 288 541C256 541 224 541 192 541C160 541 128 541 96 541C64 541 32 541 16 541L0 541Z" fill="#dbe1a8"></path><path d="M0 447L16 445.8C32 444.7 64 442.3 96 437.8C128 433.3 160 426.7 192 428.7C224 430.7 256 441.3 288 447.8C320 454.3 352 456.7 384 455.5C416 454.3 448 449.7 480 451.2C512 452.7 544 460.3 576 464.2C608 468 640 468 672 468.2C704 468.3 736 468.7 768 465C800 461.3 832 453.7 864 451C896 448.3 928 450.7 944 451.8L960 453L960 541L944 541C928 541 896 541 864 541C832 541 800 541 768 541C736 541 704 541 672 541C640 541 608 541 576 541C544 541 512 541 480 541C448 541 416 541 384 541C352 541 320 541 288 541C256 541 224 541 192 541C160 541 128 541 96 541C64 541 32 541 16 541L0 541Z" fill="#d6dd9e"></path><path d="M0 486L16 482.7C32 479.3 64 472.7 96 468.3C128 464 160 462 192 459.2C224 456.3 256 452.7 288 453.7C320 454.7 352 460.3 384 466.7C416 473 448 480 480 476.3C512 472.7 544 458.3 576 456.5C608 454.7 640 465.3 672 470.7C704 476 736 476 768 473.7C800 471.3 832 466.7 864 462.8C896 459 928 456 944 454.5L960 453L960 541L944 541C928 541 896 541 864 541C832 541 800 541 768 541C736 541 704 541 672 541C640 541 608 541 576 541C544 541 512 541 480 541C448 541 416 541 384 541C352 541 320 541 288 541C256 541 224 541 192 541C160 541 128 541 96 541C64 541 32 541 16 541L0 541Z" fill="#d1d995"></path><path d="M0 501L16 499.7C32 498.3 64 495.7 96 495.7C128 495.7 160 498.3 192 497.7C224 497 256 493 288 489.8C320 486.7 352 484.3 384 484.3C416 484.3 448 486.7 480 485.5C512 484.3 544 479.7 576 480.5C608 481.3 640 487.7 672 491.3C704 495 736 496 768 494.3C800 492.7 832 488.3 864 486.3C896 484.3 928 484.7 944 484.8L960 485L960 541L944 541C928 541 896 541 864 541C832 541 800 541 768 541C736 541 704 541 672 541C640 541 608 541 576 541C544 541 512 541 480 541C448 541 416 541 384 541C352 541 320 541 288 541C256 541 224 541 192 541C160 541 128 541 96 541C64 541 32 541 16 541L0 541Z" fill="#ccd58b"></path><path d="M0 506L16 505.8C32 505.7 64 505.3 96 504.7C128 504 160 503 192 502.2C224 501.3 256 500.7 288 502.2C320 503.7 352 507.3 384 506.5C416 505.7 448 500.3 480 497.8C512 495.3 544 495.7 576 499C608 502.3 640 508.7 672 511.2C704 513.7 736 512.3 768 510.2C800 508 832 505 864 502.5C896 500 928 498 944 497L960 496L960 541L944 541C928 541 896 541 864 541C832 541 800 541 768 541C736 541 704 541 672 541C640 541 608 541 576 541C544 541 512 541 480 541C448 541 416 541 384 541C352 541 320 541 288 541C256 541 224 541 192 541C160 541 128 541 96 541C64 541 32 541 16 541L0 541Z" fill="#c7d181"></path></svg>